<svg id="visual" viewBox="0 0 900 600" width="900" height="600" xmlns="http://www.w3.org/2000/svg" xmlns:xlink="http://www.w3.org/1999/xlink" version="1.1"><g transform="translate(429.3988043247539 303.1482389548778)"><path d="M50.7 -75.3C68.8 -77.4 88.5 -70 97.5 -55.8C106.5 -41.7 104.8 -20.8 108.4 2.1C112 25 120.9 50 106 53.9C91.1 57.8 52.3 40.6 30.7 47.8C9 54.9 4.5 86.5 -4 93.4C-12.5 100.3 -25 82.6 -27.7 64.5C-30.4 46.4 -23.3 27.9 -21.2 17.1C-19.2 6.3 -22.1 3.1 -32.2 -5.9C-42.4 -14.8 -59.7 -29.7 -67.9 -51C-76.1 -72.4 -75 -100.3 -62.2 -101.2C-49.3 -102.1 -24.7 -76.1 -4.2 -68.8C16.3 -61.6 32.7 -73.2 50.7 -75.3" fill=" hsla(46, 94%, 42%, .3)"></path></g></svg>